<svg width="636" height="429" viewBox="0 0 636 429" fill="none" xmlns="http://www.w3.org/2000/svg">
<path d="M15 411C24.5 379.833 69.8 316 181 316C320 316 345 262.5 345 222.5C345 182.5 380 128 455.5 128C531 128 621 100.5 621 34.5" stroke="white"/>
<rect x="1" y="396" width="28" height="28" fill="#BD0007"/>
<rect x="10" y="405" width="10" height="10" fill="white"/>
<rect x="1" y="396" width="28" height="28" stroke="white" stroke-width="2"/>
<rect x="176" y="311" width="10" height="10" fill="white"/>
<rect x="340" y="217" width="10" height="10" fill="white"/>
<rect x="450" y="123" width="10" height="10" fill="white"/>
<rect x="607" y="20" width="28" height="28" fill="white"/>
<rect x="616" y="29" width="10" height="10" fill="#133D8D"/>
<rect x="607" y="20" width="28" height="28" stroke="white" stroke-width="2"/>
<path d="M57.672 415.048V418H45.36C45.376 417.248 45.472 416.56 45.648 415.936C45.84 415.296 46.056 414.76 46.296 414.328C46.552 413.896 46.936 413.44 47.448 412.96C47.96 412.48 48.408 412.096 48.792 411.808C49.192 411.52 49.768 411.12 50.52 410.608C50.616 410.544 50.872 410.376 51.288 410.104C51.704 409.832 51.992 409.64 52.152 409.528C52.312 409.416 52.552 409.224 52.872 408.952C53.192 408.664 53.416 408.416 53.544 408.208C53.688 408 53.824 407.744 53.952 407.44C54.08 407.12 54.144 406.792 54.144 406.456C54.144 405.72 53.92 405.136 53.472 404.704C53.04 404.256 52.464 404.032 51.744 404.032C50.016 404.032 49.104 405.248 49.008 407.68H45.744V407.32C45.744 405.416 46.296 403.904 47.4 402.784C48.504 401.648 49.992 401.08 51.864 401.08C53.56 401.08 54.936 401.56 55.992 402.52C57.048 403.464 57.576 404.696 57.576 406.216C57.576 407.448 57.296 408.432 56.736 409.168C56.176 409.904 55.296 410.68 54.096 411.496C53.936 411.608 53.64 411.808 53.208 412.096C52.776 412.368 52.432 412.592 52.176 412.768C51.936 412.944 51.64 413.168 51.288 413.44C50.936 413.712 50.632 413.984 50.376 414.256C50.12 414.512 49.904 414.776 49.728 415.048H57.672ZM66.2319 401.104C67.1599 401.104 67.9839 401.28 68.7039 401.632C69.4399 401.984 70.0319 402.44 70.4799 403C70.9279 403.56 71.2959 404.224 71.5839 404.992C71.8879 405.76 72.0959 406.528 72.2079 407.296C72.3199 408.064 72.3759 408.872 72.3759 409.72C72.3759 412.392 71.8319 414.488 70.7439 416.008C69.6559 417.528 68.1599 418.288 66.2559 418.288C64.3039 418.288 62.7759 417.536 61.6719 416.032C60.5839 414.512 60.0399 412.408 60.0399 409.72C60.0399 408.648 60.1439 407.64 60.3519 406.696C60.5599 405.736 60.8879 404.824 61.3359 403.96C61.7839 403.08 62.4239 402.384 63.2559 401.872C64.1039 401.36 65.0959 401.104 66.2319 401.104ZM66.2079 403.912C65.7599 403.912 65.3679 404.008 65.0319 404.2C64.6959 404.392 64.4239 404.68 64.2159 405.064C64.0239 405.432 63.8639 405.792 63.7359 406.144C63.6239 406.48 63.5439 406.928 63.4959 407.488C63.4479 408.032 63.4159 408.448 63.3999 408.736C63.3999 409.024 63.3999 409.408 63.3999 409.888C63.3999 413.648 64.3439 415.528 66.2319 415.528C68.0879 415.528 69.0159 413.592 69.0159 409.72C69.0159 407.72 68.7919 406.256 68.3439 405.328C67.8959 404.384 67.1839 403.912 66.2079 403.912ZM83.5759 401.2V418H79.9519V407.08H75.8719V404.56H76.3039C78.8479 404.56 80.3359 403.44 80.7679 401.2H83.5759ZM89.3038 413.776H92.5438C92.8158 415.056 93.5838 415.696 94.8478 415.696C95.4398 415.696 95.9358 415.536 96.3358 415.216C96.7518 414.896 97.0638 414.448 97.2718 413.872C97.4798 413.296 97.6318 412.776 97.7278 412.312C97.8238 411.832 97.8958 411.28 97.9438 410.656C97.0318 411.952 95.8318 412.6 94.3438 412.6C92.7918 412.6 91.5118 412.08 90.5038 411.04C89.5118 410 89.0158 408.672 89.0158 407.056C89.0158 405.344 89.5918 403.92 90.7438 402.784C91.8958 401.632 93.3358 401.056 95.0638 401.056C96.1838 401.056 97.1598 401.296 97.9918 401.776C98.8398 402.24 99.4958 402.872 99.9598 403.672C100.424 404.472 100.768 405.336 100.992 406.264C101.216 407.192 101.328 408.184 101.328 409.24C101.328 410.328 101.216 411.376 100.992 412.384C100.768 413.392 100.416 414.352 99.9358 415.264C99.4718 416.176 98.7998 416.912 97.9198 417.472C97.0398 418.016 96.0158 418.288 94.8478 418.288C93.3118 418.288 92.0478 417.88 91.0558 417.064C90.0638 416.248 89.4798 415.152 89.3038 413.776ZM94.9918 403.864C94.2398 403.864 93.6078 404.16 93.0958 404.752C92.5998 405.328 92.3518 406.056 92.3518 406.936C92.3518 407.832 92.5998 408.568 93.0958 409.144C93.5918 409.72 94.2318 410.008 95.0158 410.008C95.7838 410.008 96.4158 409.72 96.9118 409.144C97.4238 408.568 97.6798 407.84 97.6798 406.96C97.6798 406.08 97.4238 405.344 96.9118 404.752C96.3998 404.16 95.7598 403.864 94.9918 403.864Z" fill="white"/>
<path d="M164.7 351.048V354H152.388C152.404 353.248 152.5 352.56 152.676 351.936C152.868 351.296 153.084 350.76 153.324 350.328C153.58 349.896 153.964 349.44 154.476 348.96C154.988 348.48 155.436 348.096 155.82 347.808C156.22 347.52 156.796 347.12 157.548 346.608C157.644 346.544 157.9 346.376 158.316 346.104C158.732 345.832 159.02 345.64 159.18 345.528C159.34 345.416 159.58 345.224 159.9 344.952C160.22 344.664 160.444 344.416 160.572 344.208C160.716 344 160.852 343.744 160.98 343.44C161.108 343.12 161.172 342.792 161.172 342.456C161.172 341.72 160.948 341.136 160.5 340.704C160.068 340.256 159.492 340.032 158.772 340.032C157.044 340.032 156.132 341.248 156.036 343.68H152.772V343.32C152.772 341.416 153.324 339.904 154.428 338.784C155.532 337.648 157.02 337.08 158.892 337.08C160.588 337.08 161.964 337.56 163.02 338.52C164.076 339.464 164.604 340.696 164.604 342.216C164.604 343.448 164.324 344.432 163.764 345.168C163.204 345.904 162.324 346.68 161.124 347.496C160.964 347.608 160.668 347.808 160.236 348.096C159.804 348.368 159.46 348.592 159.204 348.768C158.964 348.944 158.668 349.168 158.316 349.44C157.964 349.712 157.66 349.984 157.404 350.256C157.148 350.512 156.932 350.776 156.756 351.048H164.7ZM173.26 337.104C174.188 337.104 175.012 337.28 175.732 337.632C176.468 337.984 177.06 338.44 177.508 339C177.956 339.56 178.324 340.224 178.612 340.992C178.916 341.76 179.124 342.528 179.236 343.296C179.348 344.064 179.404 344.872 179.404 345.72C179.404 348.392 178.86 350.488 177.772 352.008C176.684 353.528 175.188 354.288 173.284 354.288C171.332 354.288 169.804 353.536 168.7 352.032C167.612 350.512 167.068 348.408 167.068 345.72C167.068 344.648 167.172 343.64 167.38 342.696C167.588 341.736 167.916 340.824 168.364 339.96C168.812 339.08 169.452 338.384 170.284 337.872C171.132 337.36 172.124 337.104 173.26 337.104ZM173.236 339.912C172.788 339.912 172.396 340.008 172.06 340.2C171.724 340.392 171.452 340.68 171.244 341.064C171.052 341.432 170.892 341.792 170.764 342.144C170.652 342.48 170.572 342.928 170.524 343.488C170.476 344.032 170.444 344.448 170.428 344.736C170.428 345.024 170.428 345.408 170.428 345.888C170.428 349.648 171.372 351.528 173.26 351.528C175.116 351.528 176.044 349.592 176.044 345.72C176.044 343.72 175.82 342.256 175.372 341.328C174.924 340.384 174.212 339.912 173.236 339.912ZM193.772 351.048V354H181.46C181.476 353.248 181.572 352.56 181.748 351.936C181.94 351.296 182.156 350.76 182.396 350.328C182.652 349.896 183.036 349.44 183.548 348.96C184.06 348.48 184.508 348.096 184.892 347.808C185.292 347.52 185.868 347.12 186.62 346.608C186.716 346.544 186.972 346.376 187.388 346.104C187.804 345.832 188.092 345.64 188.252 345.528C188.412 345.416 188.652 345.224 188.972 344.952C189.292 344.664 189.516 344.416 189.644 344.208C189.788 344 189.924 343.744 190.052 343.44C190.18 343.12 190.244 342.792 190.244 342.456C190.244 341.72 190.02 341.136 189.572 340.704C189.14 340.256 188.564 340.032 187.844 340.032C186.116 340.032 185.204 341.248 185.108 343.68H181.844V343.32C181.844 341.416 182.396 339.904 183.5 338.784C184.604 337.648 186.092 337.08 187.964 337.08C189.66 337.08 191.036 337.56 192.092 338.52C193.148 339.464 193.676 340.696 193.676 342.216C193.676 343.448 193.396 344.432 192.836 345.168C192.276 345.904 191.396 346.68 190.196 347.496C190.036 347.608 189.74 347.808 189.308 348.096C188.876 348.368 188.532 348.592 188.276 348.768C188.036 348.944 187.74 349.168 187.388 349.44C187.036 349.712 186.732 349.984 186.476 350.256C186.22 350.512 186.004 350.776 185.828 351.048H193.772ZM202.332 337.104C203.26 337.104 204.084 337.28 204.804 337.632C205.54 337.984 206.132 338.44 206.58 339C207.028 339.56 207.396 340.224 207.684 340.992C207.988 341.76 208.196 342.528 208.308 343.296C208.42 344.064 208.476 344.872 208.476 345.72C208.476 348.392 207.932 350.488 206.844 352.008C205.756 353.528 204.26 354.288 202.356 354.288C200.404 354.288 198.876 353.536 197.772 352.032C196.684 350.512 196.14 348.408 196.14 345.72C196.14 344.648 196.244 343.64 196.452 342.696C196.66 341.736 196.988 340.824 197.436 339.96C197.884 339.08 198.524 338.384 199.356 337.872C200.204 337.36 201.196 337.104 202.332 337.104ZM202.308 339.912C201.86 339.912 201.468 340.008 201.132 340.2C200.796 340.392 200.524 340.68 200.316 341.064C200.124 341.432 199.964 341.792 199.836 342.144C199.724 342.48 199.644 342.928 199.596 343.488C199.548 344.032 199.516 344.448 199.5 344.736C199.5 345.024 199.5 345.408 199.5 345.888C199.5 349.648 200.444 351.528 202.332 351.528C204.188 351.528 205.116 349.592 205.116 345.72C205.116 343.72 204.892 342.256 204.444 341.328C203.996 340.384 203.284 339.912 202.308 339.912Z" fill="white"/>
<path d="M372.7 225.048V228H360.388C360.404 227.248 360.5 226.56 360.676 225.936C360.868 225.296 361.084 224.76 361.324 224.328C361.58 223.896 361.964 223.44 362.476 222.96C362.988 222.48 363.436 222.096 363.82 221.808C364.22 221.52 364.796 221.12 365.548 220.608C365.644 220.544 365.9 220.376 366.316 220.104C366.732 219.832 367.02 219.64 367.18 219.528C367.34 219.416 367.58 219.224 367.9 218.952C368.22 218.664 368.444 218.416 368.572 218.208C368.716 218 368.852 217.744 368.98 217.44C369.108 217.12 369.172 216.792 369.172 216.456C369.172 215.72 368.948 215.136 368.5 214.704C368.068 214.256 367.492 214.032 366.772 214.032C365.044 214.032 364.132 215.248 364.036 217.68H360.772V217.32C360.772 215.416 361.324 213.904 362.428 212.784C363.532 211.648 365.02 211.08 366.892 211.08C368.588 211.08 369.964 211.56 371.02 212.52C372.076 213.464 372.604 214.696 372.604 216.216C372.604 217.448 372.324 218.432 371.764 219.168C371.204 219.904 370.324 220.68 369.124 221.496C368.964 221.608 368.668 221.808 368.236 222.096C367.804 222.368 367.46 222.592 367.204 222.768C366.964 222.944 366.668 223.168 366.316 223.44C365.964 223.712 365.66 223.984 365.404 224.256C365.148 224.512 364.932 224.776 364.756 225.048H372.7ZM381.26 211.104C382.188 211.104 383.012 211.28 383.732 211.632C384.468 211.984 385.06 212.44 385.508 213C385.956 213.56 386.324 214.224 386.612 214.992C386.916 215.76 387.124 216.528 387.236 217.296C387.348 218.064 387.404 218.872 387.404 219.72C387.404 222.392 386.86 224.488 385.772 226.008C384.684 227.528 383.188 228.288 381.284 228.288C379.332 228.288 377.804 227.536 376.7 226.032C375.612 224.512 375.068 222.408 375.068 219.72C375.068 218.648 375.172 217.64 375.38 216.696C375.588 215.736 375.916 214.824 376.364 213.96C376.812 213.08 377.452 212.384 378.284 211.872C379.132 211.36 380.124 211.104 381.26 211.104ZM381.236 213.912C380.788 213.912 380.396 214.008 380.06 214.2C379.724 214.392 379.452 214.68 379.244 215.064C379.052 215.432 378.892 215.792 378.764 216.144C378.652 216.48 378.572 216.928 378.524 217.488C378.476 218.032 378.444 218.448 378.428 218.736C378.428 219.024 378.428 219.408 378.428 219.888C378.428 223.648 379.372 225.528 381.26 225.528C383.116 225.528 384.044 223.592 384.044 219.72C384.044 217.72 383.82 216.256 383.372 215.328C382.924 214.384 382.212 213.912 381.236 213.912ZM401.772 225.048V228H389.46C389.476 227.248 389.572 226.56 389.748 225.936C389.94 225.296 390.156 224.76 390.396 224.328C390.652 223.896 391.036 223.44 391.548 222.96C392.06 222.48 392.508 222.096 392.892 221.808C393.292 221.52 393.868 221.12 394.62 220.608C394.716 220.544 394.972 220.376 395.388 220.104C395.804 219.832 396.092 219.64 396.252 219.528C396.412 219.416 396.652 219.224 396.972 218.952C397.292 218.664 397.516 218.416 397.644 218.208C397.788 218 397.924 217.744 398.052 217.44C398.18 217.12 398.244 216.792 398.244 216.456C398.244 215.72 398.02 215.136 397.572 214.704C397.14 214.256 396.564 214.032 395.844 214.032C394.116 214.032 393.204 215.248 393.108 217.68H389.844V217.32C389.844 215.416 390.396 213.904 391.5 212.784C392.604 211.648 394.092 211.08 395.964 211.08C397.66 211.08 399.036 211.56 400.092 212.52C401.148 213.464 401.676 214.696 401.676 216.216C401.676 217.448 401.396 218.432 400.836 219.168C400.276 219.904 399.396 220.68 398.196 221.496C398.036 221.608 397.74 221.808 397.308 222.096C396.876 222.368 396.532 222.592 396.276 222.768C396.036 222.944 395.74 223.168 395.388 223.44C395.036 223.712 394.732 223.984 394.476 224.256C394.22 224.512 394.004 224.776 393.828 225.048H401.772ZM413.14 211.2V228H409.516V217.08H405.436V214.56H405.868C408.412 214.56 409.9 213.44 410.332 211.2H413.14Z" fill="white"/>
<path d="M438.7 163.048V166H426.388C426.404 165.248 426.5 164.56 426.676 163.936C426.868 163.296 427.084 162.76 427.324 162.328C427.58 161.896 427.964 161.44 428.476 160.96C428.988 160.48 429.436 160.096 429.82 159.808C430.22 159.52 430.796 159.12 431.548 158.608C431.644 158.544 431.9 158.376 432.316 158.104C432.732 157.832 433.02 157.64 433.18 157.528C433.34 157.416 433.58 157.224 433.9 156.952C434.22 156.664 434.444 156.416 434.572 156.208C434.716 156 434.852 155.744 434.98 155.44C435.108 155.12 435.172 154.792 435.172 154.456C435.172 153.72 434.948 153.136 434.5 152.704C434.068 152.256 433.492 152.032 432.772 152.032C431.044 152.032 430.132 153.248 430.036 155.68H426.772V155.32C426.772 153.416 427.324 151.904 428.428 150.784C429.532 149.648 431.02 149.08 432.892 149.08C434.588 149.08 435.964 149.56 437.02 150.52C438.076 151.464 438.604 152.696 438.604 154.216C438.604 155.448 438.324 156.432 437.764 157.168C437.204 157.904 436.324 158.68 435.124 159.496C434.964 159.608 434.668 159.808 434.236 160.096C433.804 160.368 433.46 160.592 433.204 160.768C432.964 160.944 432.668 161.168 432.316 161.44C431.964 161.712 431.66 161.984 431.404 162.256C431.148 162.512 430.932 162.776 430.756 163.048H438.7ZM447.26 149.104C448.188 149.104 449.012 149.28 449.732 149.632C450.468 149.984 451.06 150.44 451.508 151C451.956 151.56 452.324 152.224 452.612 152.992C452.916 153.76 453.124 154.528 453.236 155.296C453.348 156.064 453.404 156.872 453.404 157.72C453.404 160.392 452.86 162.488 451.772 164.008C450.684 165.528 449.188 166.288 447.284 166.288C445.332 166.288 443.804 165.536 442.7 164.032C441.612 162.512 441.068 160.408 441.068 157.72C441.068 156.648 441.172 155.64 441.38 154.696C441.588 153.736 441.916 152.824 442.364 151.96C442.812 151.08 443.452 150.384 444.284 149.872C445.132 149.36 446.124 149.104 447.26 149.104ZM447.236 151.912C446.788 151.912 446.396 152.008 446.06 152.2C445.724 152.392 445.452 152.68 445.244 153.064C445.052 153.432 444.892 153.792 444.764 154.144C444.652 154.48 444.572 154.928 444.524 155.488C444.476 156.032 444.444 156.448 444.428 156.736C444.428 157.024 444.428 157.408 444.428 157.888C444.428 161.648 445.372 163.528 447.26 163.528C449.116 163.528 450.044 161.592 450.044 157.72C450.044 155.72 449.82 154.256 449.372 153.328C448.924 152.384 448.212 151.912 447.236 151.912ZM467.772 163.048V166H455.46C455.476 165.248 455.572 164.56 455.748 163.936C455.94 163.296 456.156 162.76 456.396 162.328C456.652 161.896 457.036 161.44 457.548 160.96C458.06 160.48 458.508 160.096 458.892 159.808C459.292 159.52 459.868 159.12 460.62 158.608C460.716 158.544 460.972 158.376 461.388 158.104C461.804 157.832 462.092 157.64 462.252 157.528C462.412 157.416 462.652 157.224 462.972 156.952C463.292 156.664 463.516 156.416 463.644 156.208C463.788 156 463.924 155.744 464.052 155.44C464.18 155.12 464.244 154.792 464.244 154.456C464.244 153.72 464.02 153.136 463.572 152.704C463.14 152.256 462.564 152.032 461.844 152.032C460.116 152.032 459.204 153.248 459.108 155.68H455.844V155.32C455.844 153.416 456.396 151.904 457.5 150.784C458.604 149.648 460.092 149.08 461.964 149.08C463.66 149.08 465.036 149.56 466.092 150.52C467.148 151.464 467.676 152.696 467.676 154.216C467.676 155.448 467.396 156.432 466.836 157.168C466.276 157.904 465.396 158.68 464.196 159.496C464.036 159.608 463.74 159.808 463.308 160.096C462.876 160.368 462.532 160.592 462.276 160.768C462.036 160.944 461.74 161.168 461.388 161.44C461.036 161.712 460.732 161.984 460.476 162.256C460.22 162.512 460.004 162.776 459.828 163.048H467.772ZM482.308 163.048V166H469.996C470.012 165.248 470.108 164.56 470.284 163.936C470.476 163.296 470.692 162.76 470.932 162.328C471.188 161.896 471.572 161.44 472.084 160.96C472.596 160.48 473.044 160.096 473.428 159.808C473.828 159.52 474.404 159.12 475.156 158.608C475.252 158.544 475.508 158.376 475.924 158.104C476.34 157.832 476.628 157.64 476.788 157.528C476.948 157.416 477.188 157.224 477.508 156.952C477.828 156.664 478.052 156.416 478.18 156.208C478.324 156 478.46 155.744 478.588 155.44C478.716 155.12 478.78 154.792 478.78 154.456C478.78 153.72 478.556 153.136 478.108 152.704C477.676 152.256 477.1 152.032 476.38 152.032C474.652 152.032 473.74 153.248 473.644 155.68H470.38V155.32C470.38 153.416 470.932 151.904 472.036 150.784C473.14 149.648 474.628 149.08 476.5 149.08C478.196 149.08 479.572 149.56 480.628 150.52C481.684 151.464 482.212 152.696 482.212 154.216C482.212 155.448 481.932 156.432 481.372 157.168C480.812 157.904 479.932 158.68 478.732 159.496C478.572 159.608 478.276 159.808 477.844 160.096C477.412 160.368 477.068 160.592 476.812 160.768C476.572 160.944 476.276 161.168 475.924 161.44C475.572 161.712 475.268 161.984 475.012 162.256C474.756 162.512 474.54 162.776 474.364 163.048H482.308Z" fill="white"/>
<path d="M546.7 20.048V23H534.388C534.404 22.248 534.5 21.56 534.676 20.936C534.868 20.296 535.084 19.76 535.324 19.328C535.58 18.896 535.964 18.44 536.476 17.96C536.988 17.48 537.436 17.096 537.82 16.808C538.22 16.52 538.796 16.12 539.548 15.608C539.644 15.544 539.9 15.376 540.316 15.104C540.732 14.832 541.02 14.64 541.18 14.528C541.34 14.416 541.58 14.224 541.9 13.952C542.22 13.664 542.444 13.416 542.572 13.208C542.716 13 542.852 12.744 542.98 12.44C543.108 12.12 543.172 11.792 543.172 11.456C543.172 10.72 542.948 10.136 542.5 9.704C542.068 9.256 541.492 9.032 540.772 9.032C539.044 9.032 538.132 10.248 538.036 12.68H534.772V12.32C534.772 10.416 535.324 8.904 536.428 7.784C537.532 6.648 539.02 6.08 540.892 6.08C542.588 6.08 543.964 6.56 545.02 7.52C546.076 8.464 546.604 9.696 546.604 11.216C546.604 12.448 546.324 13.432 545.764 14.168C545.204 14.904 544.324 15.68 543.124 16.496C542.964 16.608 542.668 16.808 542.236 17.096C541.804 17.368 541.46 17.592 541.204 17.768C540.964 17.944 540.668 18.168 540.316 18.44C539.964 18.712 539.66 18.984 539.404 19.256C539.148 19.512 538.932 19.776 538.756 20.048H546.7ZM555.26 6.104C556.188 6.104 557.012 6.28 557.732 6.632C558.468 6.984 559.06 7.44 559.508 8C559.956 8.56 560.324 9.224 560.612 9.992C560.916 10.76 561.124 11.528 561.236 12.296C561.348 13.064 561.404 13.872 561.404 14.72C561.404 17.392 560.86 19.488 559.772 21.008C558.684 22.528 557.188 23.288 555.284 23.288C553.332 23.288 551.804 22.536 550.7 21.032C549.612 19.512 549.068 17.408 549.068 14.72C549.068 13.648 549.172 12.64 549.38 11.696C549.588 10.736 549.916 9.824 550.364 8.96C550.812 8.08 551.452 7.384 552.284 6.872C553.132 6.36 554.124 6.104 555.26 6.104ZM555.236 8.912C554.788 8.912 554.396 9.008 554.06 9.2C553.724 9.392 553.452 9.68 553.244 10.064C553.052 10.432 552.892 10.792 552.764 11.144C552.652 11.48 552.572 11.928 552.524 12.488C552.476 13.032 552.444 13.448 552.428 13.736C552.428 14.024 552.428 14.408 552.428 14.888C552.428 18.648 553.372 20.528 555.26 20.528C557.116 20.528 558.044 18.592 558.044 14.72C558.044 12.72 557.82 11.256 557.372 10.328C556.924 9.384 556.212 8.912 555.236 8.912ZM575.772 20.048V23H563.46C563.476 22.248 563.572 21.56 563.748 20.936C563.94 20.296 564.156 19.76 564.396 19.328C564.652 18.896 565.036 18.44 565.548 17.96C566.06 17.48 566.508 17.096 566.892 16.808C567.292 16.52 567.868 16.12 568.62 15.608C568.716 15.544 568.972 15.376 569.388 15.104C569.804 14.832 570.092 14.64 570.252 14.528C570.412 14.416 570.652 14.224 570.972 13.952C571.292 13.664 571.516 13.416 571.644 13.208C571.788 13 571.924 12.744 572.052 12.44C572.18 12.12 572.244 11.792 572.244 11.456C572.244 10.72 572.02 10.136 571.572 9.704C571.14 9.256 570.564 9.032 569.844 9.032C568.116 9.032 567.204 10.248 567.108 12.68H563.844V12.32C563.844 10.416 564.396 8.904 565.5 7.784C566.604 6.648 568.092 6.08 569.964 6.08C571.66 6.08 573.036 6.56 574.092 7.52C575.148 8.464 575.676 9.696 575.676 11.216C575.676 12.448 575.396 13.432 574.836 14.168C574.276 14.904 573.396 15.68 572.196 16.496C572.036 16.608 571.74 16.808 571.308 17.096C570.876 17.368 570.532 17.592 570.276 17.768C570.036 17.944 569.74 18.168 569.388 18.44C569.036 18.712 568.732 18.984 568.476 19.256C568.22 19.512 568.004 19.776 567.828 20.048H575.772ZM590.308 20.048V23H577.996C578.012 22.248 578.108 21.56 578.284 20.936C578.476 20.296 578.692 19.76 578.932 19.328C579.188 18.896 579.572 18.44 580.084 17.96C580.596 17.48 581.044 17.096 581.428 16.808C581.828 16.52 582.404 16.12 583.156 15.608C583.252 15.544 583.508 15.376 583.924 15.104C584.34 14.832 584.628 14.64 584.788 14.528C584.948 14.416 585.188 14.224 585.508 13.952C585.828 13.664 586.052 13.416 586.18 13.208C586.324 13 586.46 12.744 586.588 12.44C586.716 12.12 586.78 11.792 586.78 11.456C586.78 10.72 586.556 10.136 586.108 9.704C585.676 9.256 585.1 9.032 584.38 9.032C582.652 9.032 581.74 10.248 581.644 12.68H578.38V12.32C578.38 10.416 578.932 8.904 580.036 7.784C581.14 6.648 582.628 6.08 584.5 6.08C586.196 6.08 587.572 6.56 588.628 7.52C589.684 8.464 590.212 9.696 590.212 11.216C590.212 12.448 589.932 13.432 589.372 14.168C588.812 14.904 587.932 15.68 586.732 16.496C586.572 16.608 586.276 16.808 585.844 17.096C585.412 17.368 585.068 17.592 584.812 17.768C584.572 17.944 584.276 18.168 583.924 18.44C583.572 18.712 583.268 18.984 583.012 19.256C582.756 19.512 582.54 19.776 582.364 20.048H590.308Z" fill="white"/>
</svg>
